<svg xmlns="http://www.w3.org/2000/svg" width="240" height="240" viewBox="167 183 240 240"><defs><style>      .cls-1, .cls-2 {        fill-rule: evenodd;      }      .cls-1, .cls-3, .cls-4 {        fill: #fff;      }      .cls-2, .cls-5 {        fill: currentColor;      }      .cls-4 {        stroke: currentColor;        stroke-width: 1.5px;      }    </style></defs><g><g id="Layer_1"><circle class="cls-4" cx="287.3" cy="303.1" r="117.4" transform="translate(-36.7 39.6) rotate(-7.4)"></circle><circle class="cls-5" cx="287.3" cy="303.1" r="110.6" transform="translate(-45.3 555.6) rotate(-83.7)"></circle><circle class="cls-3" cx="287.3" cy="303.1" r="56.1" transform="translate(-130.1 291.9) rotate(-45)"></circle><path class="cls-3" d="M286.2,379.9c-1.6.8-2.9,1.6-4,2.2-1.1.7-2,1.3-2.8,2-.8.7-1.3,1.4-1.6,2.1-.5,1.9-.8,2.9-.8,3.1,0,1.1.8,1.7,2.5,1.7.8,0,2.1-.6,4-1.8-.3-.8-.4-1.6-.4-2.3,0-1.1.3-2.1.8-3.2.5-1.1,1.2-2.4,2.2-3.8ZM295.8,385.8c1.6-.7,3-1.5,4.1-2.5,1.1-1,1.9-1.8,2.5-2.7.5-.8.8-1.4.7-1.8,0-.4-.2-.6-.6-.5-.3,0-.9.2-1.6.7-.7.4-1.4,1-2.2,1.7-.7.7-1.4,1.5-1.9,2.3-.6.9-.9,1.8-1,2.8ZM309.7,368.9c0,0,0-.1-.2-.1-.8.1-1.2-.2-1.3-.8,0-.5,0-1.2.4-2,.4-.8.8-1.5,1.5-2.2.6-.6,1.2-1,1.7-1.1.8-.1,1.2.3,1.4,1.2.1.9,0,1.9-.6,3.1-.5,1.1-1.2,2.2-2,3.1-.8.9-1.3,1.4-1.5,1.4-.1,0-.2,0-.2-.1,0-.2,0-.6.4-1.1.4-.6.5-1,.5-1.2ZM274.4,384.7c.8-1.3,2.4-3.5,3.7-4.6,1.3-1.1,2.6-2,4.1-2.7,1.4-.7,2.8-1,4-1,.9,0,1.6.2,2,.4.5.3.7.6.7,1,0,.3-.2.7-.7,1.2.7.2,1.2.4,1.4.7.3.3.4.9.4,1.7,0,.8-.2,1.8-.7,3.1-.4,1.2-1,2.4-1.8,3.4l.5.5h.4c.3,0,.6,0,.9-.2.3-.1.6-.3.8-.4.2-.1.4-.2.8-.5.1-1.2.5-2.2,1-3.3.8-1.5,2.2-3.1,4.2-4.9,1.3-1.2,2.7-2.1,4-2.7,1.4-.6,2.6-1,3.7-1.1.9,0,1.6,0,2.1.4.5.3.8.9.9,1.6,0,1.1-.3,2.2-1.1,3.3-.8,1.1-2.1,2.2-3.8,3.4-1.7,1.2-3.9,2.3-6.4,3.4v.6c.1,1,.4,1.8,1,2.3.6.5,1.3.8,2.2.7.9,0,1.8-.3,2.8-.8.9-.4,2-.9,2.8-1.7,2.4-2.2,2.4-2.5,3.3-3.7,3.6-5.4,5.4-8.1,6.7-10.3,0-2.1.7-3.3,2.2-3.7.4,0,.8,0,1.3,0l.3.4c0,.2,0,.5,0,.9,0,.3.3.9.8,1.7.4.8.8,1.5,1.1,2,.3.5.5,1.2.6,1.9.2,1.1.2,2.2-.1,3.3-.3,1.1-.9,2.2-1.7,3.4-.8,1.1-2,2.4-3.4,3.7.7,0,1.2-.1,1.6-.2.7-.2,1.5-.5,2.3-1,.8-.5,1.6-1.2,2.3-1.9.8-.8,1.7-1.7,2.7-2.9l.4,1.7c-1.9,2.6-3.6,4.6-5.2,6.1-1.6,1.5-3.1,2.3-4.4,2.6-1.7.4-3.4,0-5.2-1-1-.6-1.7-1.3-2.1-1.9-.2-.4-.4-1-.6-1.6-1.7,2.1-3.4,3.8-5,5-1.8,1.3-3.6,2.1-5.5,2.2-1.6.1-3-.4-4-1.5-1-1.1-1.5-2.6-1.7-4.7-.9.7-1.7,1.2-2.3,1.4-.7.3-1.8.4-3.2.3-2.5,2.6-4.6,3.8-6.4,3.8-1,0-2-.4-2.8-1-.8-.6-1.5-1.5-2-2.6-.5-1.1-.7-2.3-.7-3.6,0,0,0-.2,0-.3l-6.9,4.2c-2,2.2-4,4.3-6,6.3-2,1.9-3.7,3.5-5.2,4.8-1.5,1.2-2.8,2.2-3.8,2.8-1,.6-1.8.9-2.2.8-.6,0-1-.4-1.3-.8-.3-.4-.4-.9-.3-1.4.3-1.8,1.8-3.9,4.4-6.2,2.7-2.3,6.7-4.7,12-6.9,2.7-3.3,4.9-6.4,6.8-9.1,1.8-2.8,3.3-5.1,4.4-7.2,1.1-2,1.8-3.6,2.3-4.9.5-1.2.8-2,.8-2.4.1-.7-.1-1.1-.7-1.2-.5,0-1.3,0-2.3.4-1,.4-2.2,1-3.5,1.8-1.3.8-2.5,1.9-3.7,3.1-1.2,1.2-2.3,2.5-3.4,4.1-1.1,1.5-1.9,3-2.6,4.3-.7,1.3-1.1,2.4-1.2,3.3,0,.2,0,.7-.1,1.4.2-.2.4-.5.7-.8.3-.3.7-.6,1.1-.9.4-.3.9-.5,1.3-.7.3-.1.6-.2.9-.3.3,0,.5,0,.5.1,0,.1-.6.6-1.9,1.6-1.2,1-2.3,1.9-3.2,2.7-.5.5-1.2.9-2,1.2-.8.3-1.4.5-1.9.4-.5,0-.9-.4-1-.9,0-.5,0-1.3.1-2.3.4-2.5,1.3-5.1,2.7-8,1.4-2.9,3.1-5.3,5-7.3,1.6-1.6,3.4-3,5.4-4.1,2.1-1.2,4-2,5.9-2.5,1.9-.5,3.3-.7,4.3-.6,1.2.2,2.1.7,2.6,1.5.5.8.7,1.8.5,3,0,.6-.3,1.3-.6,2-.3.7-.6,1.5-1,2.2-.4.7-1,1.9-1.8,3.5-.9,1.6-1.4,2.7-1.7,3.2-.8,1.6-1.9,3.3-3.1,4.9-1.2,1.7-2.9,3.8-5.1,6.6l5.2-3.8.3-.3ZM316.2,380.7l-1.3-3.5c-.9,1.4-2.8,4.1-5.7,8.2,1.1,0,1.9.1,2.4.4.5.3,1.2.9,2.1,1.7,1.1-.7,1.9-1.6,2.4-2.5.5-.9.6-2.1.3-3.5,0-.2,0-.3-.1-.4,0-.1,0-.3-.1-.4Z"></path><path class="cls-4" d="M340.2,303.1c0,29.2-23.7,52.9-52.9,52.9s-52.9-23.7-52.9-52.9,23.7-52.9,52.9-52.9,52.9,23.7,52.9,52.9Z"></path><path class="cls-5" d="M336.5,303.1c0,27.2-22,49.2-49.2,49.2s-49.2-22-49.2-49.2,22-49.2,49.2-49.2,49.2,22,49.2,49.2Z"></path><g><g><path class="cls-2" d="M293,348.8c1.2,1.1,2.6,1.9,4.1,2.4.6.2,1.2.5,1.8.7,0,0,.1,0,.2,0,1.1.4,2.2.7,3.4.8,0,.1,0,.3,0,.4,0,.3.2.5.3.8,0,0,0,0,0,0,.2.3.4.6.6.8.3.4.5.9.7,1.3.1.3.3.7.5,1,.2.3.6.6.9.8.7.4,1.4.7,2.1.8,1.4.5,2.9.7,4.4.8h.1c.8,0,1.6-.4,2.2-.9.1,0,.2-.2.4-.3.1-.1.2-.3.3-.4l.2-.3c0,0,.2,0,.2,0,.2,0,.3,0,.5,0,.3,0,.6,0,.8,0h.3c0,0,.2,0,.2,0,.6,0,1.2-.4,1.6-.9.2-.2.4-.5.5-.7,0,0,0,0,0,0,.4-.7.9-1.3,1.3-2,.5-.6.8-1.3,1.1-2,0,0,0-.1,0-.2.1-.4.2-.8.3-1.2,0-.3,0-.6,0-.9.2-.2.4-.5.6-.8.3-.5.4-1.1.2-1.7,0,0,0,0,0-.1.3,0,.5.1.8.2h.6c0,.2.1.2.2.2.2.1.4.2.6.3,0,0,0,0,.1,0l1.4.4,4,1.5c.4.1.8.3,1.2.4.2.1.4.2.6.3,0,0,0,0,0,0,.7.2,1.3.4,2,.5,0,0,.2,0,.3,0h.2c.7.4,1.4.7,2.1,1.1.2.1.4.2.7.3.3,0,.5.1.8.1,1.1,0,2.2.2,3.3.7,1.1.4,2.4.7,3.6.7l9.5.7c3.3.3,6.5.2,9.7-.4,2.3-.5,4.5-1.2,6.6-2.2.4-.1.7-.2,1.1-.3,0,0,.2,0,.2,0,.9-.3,1.9-.4,2.8-.5,1.3,0,2.6,0,3.9-.3,0,0,.2,0,.2,0,.7-.2,1.3-.5,1.8-1,.4-.3.7-.6,1-1,.2-.4.4-.9.6-1.4l.3-.8c.4-1.1.8-2.2,1-3.4,0-.4,0-.9,0-1.3,0-.2,0-.4,0-.5,0-.2-.2-.4-.2-.7-.1-.3-.3-.7-.4-1,0-.2-.1-.3-.2-.4,0-.1-.2-.3-.4-.4-.2-.2-.4-.4-.7-.5-1.2-1.2-2.6-2.3-4-3.3,0,0,0-.1,0-.2,0,0,0-.2,0-.3,0-.1,0-.3,0-.4,0-.4,0-.7,0-1.1,0,0,0-.1,0-.2,0-.1-.1-.2-.2-.4-1.8-2.9-3.7-5.8-5.6-8.6-.5-.9-.8-1.8-1-2.8v-.5c0,0-.2-.2-.2-.2-.2-.3-.3-.6-.4-.9-.2-.6-.4-1.1-.7-1.6-.3-.6-.7-1.1-1.2-1.5-.5-.4-.9-.9-1.3-1.5-1-1.1-2-2-3.1-2.9-1.1-1.3-2-2.7-2.6-4.3l-.3-.7-.2-.3c-.1-.2-.2-.4-.3-.6,0-.1,0-.2-.1-.3-.3-.8-.7-1.5-1.1-2.2-.3-.5-.6-.9-.9-1.3,0,0-.1-.1-.2-.2-.1,0-.2-.2-.4-.2-.6-.4-1.1-.7-1.8-1-1-.5-2-1.1-3-1.6-.8-.4-1.6-.8-2.3-1.4-1-.7-2.1-1.3-3.2-1.9-1-.6-2-1.3-3-2-3.2-2.1-6.4-4.1-9.6-6.1-3.1-1.6-6.1-3.1-9.3-4.6-1.1-.4-2.2-.9-3.3-1.3-.2,0-.3-.2-.5-.3,0,0-.2-.2-.2-.3,0,0,0-.2,0-.3,0-.3,0-.7.1-1,.2-1.1.2-2.2.1-3.3,0-.6-.3-1.1-.7-1.6-.3-.5-.8-.8-1.3-1-.7-.3-1.4-.4-2.1-.3-.4,0-.9.2-1.3.4-.1,0-.2,0-.3.1,0,0-.1,0-.2,0-.1,0-.2,0-.2-.1v-.2c-.2-.3-.2-.7-.3-1-.3-1.4-.5-2.8-.5-4.2,0-.1,0-.2,0-.4,0-.1,0-.2-.1-.3-.2-.5-.4-1.1-.6-1.7,0-.5-.2-1-.4-1.4-.2-.4-.4-.9-.5-1.3,0-.1,0-.3-.1-.4,0,0,0-.2-.2-.3l-.5-.9c0-.2-.2-.4-.2-.7-.3-1.4-.9-2.7-1.6-3.8-.1-.2-.2-.3-.3-.5,0-.1-.1-.2-.2-.3,0,0-.1-.1-.2-.2-.6-.2-1.1-.5-1.5-1l-2.1-2.5c-.9-.9-1.8-1.6-2.8-2.3-.4-.2-.7-.5-1-.8-.4-.3-.9-.6-1.4-.9-2.6-1.5-5.5-2.5-8.6-3-5.2-1.1-10.5-1.5-15.8-1-2.4.4-4.7.9-7,1.6-.3,0-.5.1-.8.2,0,0-.2,0-.3,0-.1,0-.2,0-.4.1-1.8.8-3.5,1.7-5.2,2.6-.4.2-.7.5-1,.8-.7.5-1.5,1-2.3,1.4-1.7,1.2-3.3,2.6-4.7,4-1.3,1-2.5,2.1-3.7,3.2-1.8,2.2-3.2,4.6-4.4,7.1l-.3.6c-.1.4-.2.7-.3,1.1,0,.3-.1.5-.2.8,0,.2,0,.4-.1.5-.5,1.5-.7,3.1-.7,4.7,0,.2,0,.4,0,.7,0,0,0,.2-.1.2,0,0-.1,0-.2,0s-.1,0-.2,0c0,0,0,0-.1,0,0,0-.2-.2-.3-.3-.6-.5-1.2-.9-1.8-1.3-.1,0-.2-.1-.4-.1-.2,0-.4,0-.7,0-.2,0-.4,0-.5,0-.2,0-.5.2-.7.3-1.1.6-1.9,1.6-2.2,2.9-.1.4-.2.7-.3,1.1-.2.7-.2,1.4-.1,2.2,0,.4,0,.8.2,1.1,0,.1,0,.3,0,.4,0,.2,0,.3-.1.4-.2.4-.4.8-.8,1-2.1,1.2-4.1,2.3-6.2,3.5-2.1,1.2-4.3,2.2-6.5,3.1-.7.3-1.3.9-1.7,1.5-.2.5-.5,1-.9,1.4-.4.5-.9.9-1.5,1.3-1.8,1.4-3.6,2.8-5.4,4.2-2,1.5-3.9,3.1-5.7,4.9-1.2,1.1-2.4,2.2-3.5,3.4-1.2,1.4-2.6,2.6-4.1,3.7-.7.5-1.3,1.2-1.7,2,0,0,0,.2-.1.3,0,.2,0,.4,0,.6.1.8,0,1.6-.5,2.3-.6,1-1.2,1.9-1.8,2.9-.2.4-.4.9-.6,1.3-.5,1.1-1.1,2.2-1.8,3.2-.3.5-.6,1-.7,1.5v.3c-.3.3-.4.6-.6.9-.3.5-.6.9-.9,1.4,0,.1-.1.2-.2.4,0,.2,0,.5,0,.7,0,.3,0,.6,0,.9-2.6,1.5-4.2,4.4-4,7.3,0,.4,0,.9,0,1.3,0,.8,0,1.6,0,2.5,0,.1,0,.2,0,.4,0,.1,0,.2.2.4.5,1.1,1.3,2,2.3,2.7.6.5,1.1.9,1.7,1.4.4.5.9,1,1.4,1.4.3.3.6.6.8.9.3.3.6.6.8,1,.4.4.9.7,1.3,1.1.2.2.5.4.9.5.2.1.5.2.8.2,0,0,.1,0,.2,0h.1c.6.7,1.2,1.2,1.9,1.6l1.1.7s.1,0,.2.1c.9.4,1.8.8,2.7,1.1.6.2,1.2.3,1.8.3.7,0,1.4.2,2.2.4.7.1,1.3.2,2,0l4.3-.2c0,0,.1,0,.2,0,1.7-.2,3.5-.6,5.2-1,1.3-.2,2.6-.4,3.8-.5,0,0,.2,0,.2,0,.9-.2,1.8-.3,2.6-.4h.1c.4,0,.9-.1,1.3-.1h.5c.4,0,.8-.2,1.2-.3,1.9-.4,3.8-.7,5.7-1,0,0,.1,0,.2,0,.7-.2,1.5-.4,2.2-.6l2.6-.5s0,0,.1,0c1.3-.4,2.6-.6,4-.7,0,0,.1,0,.2,0,.9-.1,1.8-.3,2.6-.6l3-.6c.7,0,1.3-.1,1.9-.2.9-.2,1.8-.4,2.6-.6.8-.1,1.6-.2,2.5-.3,1-.2,2-.4,3-.6,2-.2,4.1-.3,6.2-.3.9,0,1.9-.2,2.8-.3,1.5,0,3.1-.2,4.6-.4,3.5-.1,7-.2,10.5-.1,1.3,0,2.7,0,4,0,.1,0,.2,0,.3,0,0,0,0,0,.1,0,.6.4,1.2,1.1,1.5,1.7.2.8.6,1.5,1.2,2.1h0Z"></path><path class="cls-1" d="M322.1,284.2l-2.7,7.3c0,.2-.2.4-.2.5-.3.7-.6,1.4-1,2-.2.8-.6,1.5-1.2,2.2-.2.2-.4.4-.6.7-.2.2-.3.5-.3.7,0,.2,0,.3,0,.4,0,.1,0,.2,0,.3,0,.2,0,.5-.2.7-.1.3-.2.6-.4.8-.3.5-.6.9-.9,1.4,0,.2-.1.3-.2.4,0,0-.2.2-.2.3-.9.9-1.6,2-2.3,3l-.2.3c-.2.3-.5.5-.7.8-.9,1.1-2,2-3,3-.1.1-.2.2-.4.4-.2.2-.4.4-.6.5-.4.2-.8.5-1.1.8-.9.8-1.9,1.5-2.9,2.2-.5.4-1,.8-1.5,1.2l-.3.2c-.3.2-.7.4-1,.5-.9.4-1.8.9-2.6,1.5l-.6.4-.4.2c-.9.4-1.8.9-2.6,1.4-.4.2-.9.4-1.4.5-.6.3-1.2.5-1.8.6-.7.1-1.4.4-2,.6-1.6.6-3.2,1-4.8,1.3-.4,0-.9,0-1.3,0h-1.2c0,0,.1,0,.2,0,.2,0,.3.1.5.2l.7.3c.1,0,.2.1.4.1.2,0,.3,0,.5,0,2.3.2,4.5.2,6.8,0l9.6-.3c1.7,0,3.3.2,4.9.7.4,0,.7.2,1.1.2.2,0,.4,0,.7,0h.3c1.4,0,2.8,0,4.1,0l11,.3c1.8,0,3.7.2,5.5.6,1.8.2,3.7.4,5.5.4.9.1,1.9.2,2.9.4,1.9.4,3.9.5,5.9.5.6,0,1.2,0,1.7.2,3.9.5,7.7.9,11.6,1.1.3,0,.7,0,1,0,.4,0,.7,0,1.1,0,2.5.1,4.9.6,7.3,1.3.8.3,1.5.7,2.3,1.1,1.6.9,3.1,1.8,4.6,2.8.4.3.7.5,1,.8.4.3.8.6,1.1.9.2.2.5.3.7.5.7.5,1.4,1.1,2.1,1.7,0-.2,0-.3,0-.5l-.3-1.9c-.1-.4-.3-.7-.5-1-1.5-2.4-3-4.8-4.4-7.2-.9-1.9-1.7-3.9-2.5-5.8-.4-.7-.9-1.4-1.5-1.9-.6-.7-1.2-1.3-1.7-2-.5-.5-1-1-1.6-1.4-1.1-.7-2-1.8-2.5-3l-2.4-5.3c-.7-1.1-1.4-2-2.4-2.9-.7-.5-1.4-.9-2.2-1.2-1.3-.6-2.5-1.2-3.8-1.8l-.7-.3s0,0,0,0l-.3-.2c-2.1-1.6-4.4-3-6.7-4.3-1.1-.9-2.3-1.7-3.4-2.5-.6-.3-1.2-.7-1.8-1-1.4-1-2.8-1.8-4.4-2.4l-4.5-2.5c-1.5-.8-3.2-1.4-4.9-2-.5-.1-1.1-.2-1.7-.3h0Z"></path><path class="cls-1" d="M319,274.9c-.5,0-.9.2-1.4.3-.1,0-.2,0-.4.2,0,0-.2.1-.2.2-.3.3-.6.6-.9,1,0,.1-.1.2-.1.3,0,.1,0,.3-.1.4,0,.7,0,1.4,0,2.1,0,.2,0,.4,0,.5,0,0,.1.1.2.1.1,0,.2,0,.3-.2,0-.2.2-.3.2-.5.1-.4.3-.9.6-1.3.4-.5.9-1,1.5-1.2l.7-.2c.6,0,1.3,0,1.8.4.1,0,.3.2.4.3,0,0,0,0,.1,0,0,0,0-.1.1-.2,0-.2,0-.3,0-.4-.1-.3-.2-.5-.4-.8-.2-.3-.4-.5-.7-.7h-.3c-.2-.2-.4-.3-.6-.3h-.3s-.3,0-.3,0h0Z"></path><path class="cls-1" d="M316.9,293.5c.2-.7.6-1.3.9-2,.1-.4.3-.9.5-1.3.4-.9.7-1.8.9-2.7.5-1.6,1.1-3.1,1.8-4.6v-.2c.3-1.5.2-3-.3-4.4-.1-.4-.4-.7-.6-1,0,0-.1,0-.2,0,0,0-.1,0-.2,0-.9.3-1.5,1-2,1.8-.3.5-.5,1-.7,1.6,0,.2-.1.5-.1.7,0,.1,0,.3,0,.4,0,.1,0,.2,0,.3.2.8.5,1.6.9,2.3.6,1.4.4,3.1-.7,4.2-.4.4-.7.9-1,1.3l-.3.6v.4c0,.4-.2.8-.2,1.2,0,.3,0,.5,0,.8,0,.6,0,1.2,0,1.7,0,0,0,.2,0,.2,0,0,.1,0,.2,0,0,0,.1,0,.2,0,0,0,.1-.1.2-.2.1-.5.3-.9.6-1.4h0Z"></path><path class="cls-1" d="M317,284.9s0,0-.1,0c0,.1-.1.3-.1.4,0,.6-.2,1.2-.4,1.8l-.2.5s0,0,0,.1c0,.1.2.2.2.3,0,0,0,0,.1,0,0,0,0,0,.1,0,.7-.9.8-2.1.5-3.1h-.2Z"></path><path class="cls-1" d="M308,296.1c.4-.3,1-.6,1.5-.8.7-.3,1.3-.7,2-1.1.1-.1.2-.3.3-.4v-.4c.3-.7.4-1.4.6-2.1v-.2s0-.2,0-.2c-.2-1.5-.1-3,.1-4.4.2-2.7.2-5.4,0-8v-.2c0-.5,0-1-.2-1.4,0-.1-.1-.2-.2-.3,0,0,0,0-.2,0,0,0-.1,0-.2,0-.3,0-.6,0-.9.1l-2.1.6c-.6.1-1.3.2-1.9.3-.1,0-.2,0-.3,0,0,0-.1,0-.2.1v.2c-.2.2-.2.4-.2.6-.2.8-.5,1.5-.9,2.1-.6.7-1.4,1.2-2.4,1.4-2.3.4-4.6.4-6.9.3-2.2,0-4.3,0-6.5-.2-.4,0-.9,0-1.3,0-.1,0-.3,0-.4,0,0,0-.2,0-.3.1-.4.2-.7.4-1,.7,0,0-.1.1-.2.2,0,0,0,0,0,.1,0,.1.1.3.2.4.4.4.9.7,1.3.9.5.2,1.1.4,1.6.6,0,0,.2,0,.3.1.1,0,.2.2.3.2.5.4,1.1.8,1.6,1.2.4.4.8.8,1.2,1.1.2.1.3.3.5.4.2.2.3.3.4.5v.3c.1,0,.7,1.2.7,1.2,0,0,0,.1,0,.2,0,.2,0,.3,0,.5,0,.7.2,1.3.5,1.9.3.8.5,1.7.5,2.6,0,1.1.2,2.2.4,3.3,0,.3,0,.5,0,.8,0,.7.1,1.3.2,2v.4c.1.2.1.5.1.7v.3c0,.2,0,.3,0,.4,0,0,0,0,0,.1,0,.1,0,.2.2.3,0,0,0,.2.2.2,0,0,0,0,.2,0,1.2-.3,2.3-.8,3.2-1.5.6-.4,1.2-.7,1.9-.9.2,0,.4-.2.6-.3.1,0,.2-.1.4-.2,0,0,.2-.1.2-.2.2-.2.3-.3.5-.4l.2-.2c.3-.2.6-.3.9-.4.2,0,.3-.2.4-.3.1-.1.2-.2.3-.4.2-.4.4-.8.5-1.3,0-.2.1-.3.2-.5,0-.1.2-.3.3-.4l1.2-1.1h0Z"></path><path class="cls-1" d="M307.2,276.3h.3c1-.3,2-.5,2.9-.9.5-.1,1-.2,1.5-.3.2,0,.4,0,.7-.1,0,0,0,0,0-.1-.6-.2-1.3-.2-1.9,0-.4,0-.7.2-1.1.2l-1.7.2c-.4,0-.9.2-1.3.4,0,0-.1.2-.1.2s0,.2.2.2c.2.1.4.2.6.2h0Z"></path><path class="cls-1" d="M265.5,268.3c.5,0,1-.2,1.5-.3.4,0,.8,0,1.2,0,.9,0,1.9.3,2.6.8l.2.2c0,0,.2,0,.3.1.1,0,.3,0,.4,0,0,0,.1,0,.2,0s.1,0,.2,0c.2,0,.5.1.7.2.4,0,.8,0,1.1-.2.1,0,.3,0,.4,0,0,0,.1,0,.2,0,0,0,.2,0,.2.1,0,.2,0,.3,0,.5,0,.2-.1.3-.2.4-.2.2-.4.4-.6.7l-.2.2c-.1.2-.1.4,0,.5l.2.2c.2.2.4.4.7.6l.2.2c.2.2.4.5.5.8l.2.5c0,0,.2.2.3.2.2,0,.4,0,.6,0h.3c1.8-.9,3.8-1,5.7-.5.3.1.6.2.9.4.1,0,.3,0,.4,0,.1,0,.2,0,.3-.2.2-.3.4-.7.7-1,.7-.7,1.6-1.2,2.6-1.4.2,0,.3,0,.5-.1,0,0,0,0,0,0,0,0,0,0,0-.1h0c0-.2,0-.3,0-.4,0,0,0-.2,0-.3,0,0,0,0,.1-.1h.2c1.1-.1,2.2-.4,3.1-.9.7-.4,1.5-.7,2.3-.9.5-.2,1.1-.2,1.7-.2.4,0,.9,0,1.3.1.2,0,.3,0,.5,0,0,0,.2,0,.2,0,.7.4,1.5.7,2.2,1l2,.7c.7.3,1.3.8,1.9,1.3.3.3.7.6,1,.8.3.2.6.3.9.5.4.3.6.7.7,1.1,0,.2.2.4.2.7,0,.2.2.2.4.3h.2c.4,0,.8-.2,1.1-.2.6,0,1.3-.2,1.9-.4l.7-.2c.5-.2.9-.7.9-1.2,0,0,0-.2,0-.2,0-.1-.2-.3-.2-.4-.2-.3-.5-.6-.7-.9-.3-.4-.7-.9-1-1.2,0,0,0,0-.1-.1-.1,0-.3-.2-.4-.3-.7-.4-1.3-.8-2-1.3-.4-.2-.7-.6-.8-1-.1-.4-.2-.7-.3-1.1-.2-.6-.3-1.1-.5-1.7-.1-.4-.2-.9-.2-1.3,0,0,0-.2,0-.3,0,0,0-.2.2-.2.2-.1.3-.2.4-.4l.2-.2c.2-.2.3-.5.5-.7,0,0,0-.2.2-.3,0,0,0,0,.1-.1.3-.2.6-.6.7-1,.1-.3.2-.7.3-1,0-.3.1-.5,0-.8v-.4c-.2-.2-.3-.4-.4-.7-.2-.3-.4-.5-.6-.8-2.2-2.6-4.9-4.8-7.9-6.3-2.1-1.1-4.3-1.8-6.6-2.1-.6-.1-1.3-.2-1.9-.3-1.9-.2-3.8-.4-5.7-.8-1.9-.2-3.8-.2-5.7-.2-.2,0-.5,0-.7.2-.9.2-1.7.4-2.6.5-2.2.5-4.4,1.1-6.6,1.7-1.3.5-2.4,1.2-3.6,1.9-1.4.9-2.9,1.7-4.4,2.4-2.3,1.3-4.2,3.1-5.9,5.2,0,0,0,.2-.1.2,0,.1,0,.3-.1.4-.1.5-.2,1-.3,1.4,0,.2,0,.5,0,.7v.4c0,0,.5,1.5.5,1.5,0,0,0,.2,0,.2,0,.1.1.2.2.4.2.4.4.7.6,1.1,0,.1,0,.2,0,.3,0,.2,0,.3,0,.5-.1.7-.2,1.3-.4,1.9,0,.1,0,.3,0,.4,0,.1,0,.2,0,.4,0,.4,0,.9,0,1.3v.5c0,.2-.2.4-.4.6l-.3.2c-1.2.8-2.4,1.6-3.7,2.3l-.5.3c0,0-.2.2-.2.3s0,.3.1.4c0,0,0,0,0,.1,0,.1.2.2.3.3.2.2.4.3.6.3.4,0,.9,0,1.3,0h.4c.3-.2.6-.5.7-.8,0-.1,0-.3,0-.4,0-.1,0-.2,0-.4,0-.2.1-.4.2-.5,0-.1.2-.2.3-.3.4-.3.9-.6,1.4-.9,0,0,.2,0,.2-.1.1,0,.3,0,.4,0,.4,0,.9,0,1.3-.1h.4c0,0,0,0,.1-.1.3-.1.5-.3.8-.4.9-.6,1.9-1.1,3-1.6,1-.3,2-.5,3-.7h0Z"></path><path class="cls-1" d="M305.6,275c0-.2,0-.5-.2-.7,0-.3-.2-.6-.2-.9,0,0,0-.2-.1-.2,0,0,0,0-.1-.1h-.2c-.3-.2-.5-.3-.8-.4h-.2s0,0,0,0c0,0,0,0,0,0,0,0,0,.2.1.2.2.2.4.4.7.6.2.2.3.4.4.6,0,.3.1.6.1.8,0,.7.2,1.3.4,2v.2c0,0,.1.1.2.1s0,0,0,0c0,0,0,0,0,0v-.2c0-.7,0-1.3,0-1.9h0Z"></path><path class="cls-1" d="M303.2,279.1c0,0,0-.1.2-.2.2-.2.4-.5.6-.8.2-.3.3-.6.3-.9,0-.4,0-.7-.1-1,0-.2,0-.4,0-.6,0-.2,0-.4,0-.6,0-.3-.1-.5-.3-.7l-.3-.2c-.6-.3-1.3-.6-2-.7-.9-.2-1.8-.3-2.8-.4-.8,0-1.7-.2-2.5-.4-1.3-.2-2.6-.2-4-.2-1.7,0-3.4.1-5,.5-.7.1-1.3.6-1.5,1.2-.2.4-.3.9-.4,1.3,0,0,0,.2,0,.3,0,.1,0,.2,0,.4,0,.3.1.6.2.8,0,.3.2.6.4.9l1.1,1.5v.2c.2,0,.3.1.5.1s.4,0,.6,0c.7,0,1.4,0,2.1,0,2.6.1,5.1.1,7.7,0h2.3c.8,0,1.5,0,2.3,0,.2,0,.4,0,.6-.2,0,0,.2-.2.2-.3h0Z"></path><path class="cls-1" d="M293.3,280.5c-1.3,0-2.7,0-4-.2-.3,0-.6,0-.9,0h-.3c0,0-.1,0-.2.1,0,0,0,0,0,0,0,0,0,.2,0,.3,0,0,0,0,.1.1,0,0,.2,0,.3,0,.8,0,1.7,0,2.5,0,2.3.2,4.6.2,6.9,0,.9,0,1.9,0,2.8,0,.6,0,1.1,0,1.7-.2-.6-.1-1.1-.1-1.7-.1h-1.7c-1.9-.1-3.8-.2-5.7-.3h0Z"></path><path class="cls-1" d="M290.9,270.3s0,0,0,0,0,.1,0,.1c.3.2.6.3.9.3,2.4.2,4.8.3,7.1.2.2,0,.3,0,.5-.1h.1c0,0,0-.1,0-.2,0,0,0,0,0,0h-.1c-.4-.3-.8-.5-1.3-.6-.5-.2-1.1-.4-1.6-.6-.2,0-.5-.1-.7-.2-.7,0-1.3,0-2,.2-1,.3-1.9.6-2.9.8h0Z"></path><path class="cls-1" d="M289,292.4c0-.2-.2-.3-.4-.4-.2,0-.4,0-.6,0-.4.2-.8.4-1.1.7l-.2.2c.1.2.3.4.5.6.4.5,1.1.7,1.7.5h.4c0,0,.2-.2.2-.2,0-.1,0-.2,0-.3-.2-.4-.3-.8-.4-1.1h0Z"></path><path class="cls-1" d="M284.7,292.5c.6-.2,1.1-.4,1.6-.7.4-.2.8-.4,1.2-.7l.3-.2c.2-.2.3-.5.3-.8,0,0,0-.1-.1-.2,0-.1-.2-.2-.2-.3-.3-.3-.7-.6-1-.8-.1-.1-.3-.2-.4-.2-.2,0-.4-.1-.6-.2-.6,0-1.3-.2-1.9-.2h-.3c-.2,0-.4,0-.5.2l-.2.3c-.1.2-.3.4-.4.6,0,0-.1.1-.2.2-.2.2-.4.2-.7.2-.1,0-.3,0-.4,0,0,0-.2,0-.3,0-.1,0-.3,0-.4,0-.2,0-.5,0-.7.2-.6.2-1.2.4-1.9.4-.3,0-.6,0-.8,0,0,0-.1,0-.2,0-.2,0-.5-.2-.7-.3-.4-.2-.8-.3-1.2-.3,0,0-.2,0-.2,0,0,0-.1,0-.2,0-.2.1-.5.3-.7.4-.7.4-1.4,1-2.1,1.5,0,0-.1.1-.1.2,0,0,0,.2,0,.3s0,.2,0,.3c0,0,0,.2-.2.2-.2,0-.3.2-.5.3-.1,0-.2.2-.3.4,0,.1-.1.3-.1.4v1c0,.1.1.2.2.3.2,0,.3,0,.5,0,0,0,0,0,.1,0,.2,0,.3-.1.4-.2.2,0,.4-.2.5-.3.1,0,.2-.1.3-.2,0,0,0-.2,0-.2s0-.2,0-.4l-.2-.2c0-.1-.2-.2-.3-.3l-.2-.2c0,0,0-.2,0-.3h.1c.2-.2.3-.2.5-.2.4,0,.7.2,1.1.3.2,0,.5.1.7.2.7.2,1.5.2,2.2.2,2.1,0,4.2-.2,6.2-.4.7-.1,1.3-.2,2-.4h0Z"></path><path class="cls-1" d="M286.7,281.2c0-.1,0-.3,0-.4,0-.2,0-.4-.1-.5,0,0-.1-.2-.2-.3-.2-.1-.3-.3-.5-.4-.5-.4-1-.8-1.4-1.3-.1-.1-.2-.2-.4-.4h-.2c0-.2,0-.2,0-.2,0-.2,0-.4,0-.6v-.4c0-.2,0-.5-.1-.7,0,0,0-.2,0-.2-.1-.2-.3-.3-.5-.4h-.4c-1.1-.4-2.2-.6-3.4-.8-.3,0-.6,0-.9,0-.6.1-1.1.3-1.7.5h-.3c-.2.2-.3.4-.3.5,0,0,0,.2,0,.2,0,0,.1.1.2.2h.2c.2,0,.3,0,.5-.1.2,0,.4,0,.5-.1.1,0,.3,0,.4,0,.2,0,.3,0,.5,0h.1c0,0,0,.1,0,.2s0,0,0,0h-.1c-.6.4-1.3.6-1.9.9-.2,0-.4.2-.6.3-.3.1-.6.4-.8.7-.3.4-.6.9-.8,1.4,0,.2-.2.3-.3.4,0,0-.2.2-.4.2-.2,0-.3.1-.4.2-.2.1-.3.2-.4.4l-.2.2c-.1.1-.2.3-.2.4,0,.1,0,.2,0,.3,0,0,0,.1.1.2,0,0,0,.1.2.2,0,0,.1,0,.2,0,0,0,.2,0,.2-.1l.2-.2c.3-.2.6-.3.9-.2h.3c1,.5,2,.9,3,1.2,1,.2,2.1.2,3.1,0,.5-.2,1.1-.4,1.5-.8.3-.2.5-.4.8-.6l.2-.2c.2-.2.5-.3.8-.4,0,0,.1,0,.2,0s0,0,.1,0c.2,0,.4.2.6.3,0,0,0,.1.1.2,0,0,0,.2,0,.3,0,0,0,.1-.1.2,0,0-.2.2-.3.2-.1,0-.2.2-.2.3,0,0,0,.2,0,.2,0,0,.2,0,.2,0,.2,0,.3,0,.4,0,.5-.2.9-.6,1.2-1h0Z"></path><path class="cls-1" d="M280.7,288c0,0-.1-.1-.2-.1-.9,0-1.7,0-2.5.2-.2,0-.3.1-.4.2,0,0,0,0,0,.1.8.2,1.7.3,2.5.2l.6-.2v-.2c.1,0,.1-.1,0-.2h0Z"></path><path class="cls-1" d="M276.3,321.7h-3.8s-.8-.1-.8-.1c0,0,0,0-.1,0-1-.4-2-.8-3-1.2-.4-.2-.9-.4-1.3-.7-.5-.4-1.1-.7-1.7-.9-1.3-.7-2.6-1.5-3.8-2.4-1.4-.9-2.8-1.8-4.3-2.5-.6-.4-1.1-.8-1.6-1.2-.5-.3-.9-.7-1.3-1.2-.3-.4-.6-.9-.9-1.4v-.3c-.2-.2-.2-.3-.2-.4,0-.3-.2-.6-.4-.9-.6-.5-1.1-1.1-1.6-1.7-.3-.5-.6-1.1-.9-1.6,0-.1-.1-.2-.2-.3,0,0-.2-.2-.2-.2-.5-.4-.9-.9-1.2-1.4l-.3-.6s0,0,0-.1c0,0-.2-.2-.3-.3-.2-.2-.4-.5-.6-.8-.1-.2-.2-.4-.2-.6,0-.7-.2-1.3-.4-1.9-.2-.5-.4-.9-.7-1.3-1.1-1.5-1.9-3.1-2.4-4.8-.6-1.8-1.4-3.5-2.5-5-.6-.9-1.1-1.8-1.5-2.8l-.3-.6s-.1,0-.2,0c-3,1.9-6.1,3.5-9.3,5-1.3.7-2.7,1.3-4.1,1.9-.3.1-.6.2-.8.4,0,0-.2.1-.2.2v.3c-.3.5-.4,1-.5,1.6,0,.3,0,.5,0,.8v.3c-.2.2-.4.4-.7.6-.3.1-.6,0-.8,0-.1,0-.2-.1-.2-.2,0,0-.1-.2-.2-.3-1.1.9-2.1,1.7-3.2,2.4-.7.5-1.4,1-2,1.6-.5.5-1,.9-1.6,1.3-1.1.9-2.1,1.8-3.1,2.8-.8.6-1.5,1.2-2.2,1.9-1.7,1.6-3.3,3.3-4.8,5.2l-2.5,2.6-.2.2c0,.1-.1.3-.2.4v.4c0,.6,0,1.1,0,1.7v.3c0,.2-.1.5-.2.7-.2.2-.3.3-.6.4-.1,0-.2,0-.4.1,0,0-.2.2-.2.3-1.6,3.1-3.2,6.2-4.9,9.3-.2.4-.4.7-.7,1.1.5-.3,1-.7,1.5-1.1,2.1-1.5,4.3-2.9,6.5-4.2,2-1.3,4-2.5,6.2-3.6.4-.1.7-.2,1.1-.4.8-.3,1.6-.5,2.4-.6.9-.2,1.7-.3,2.5-.5,1.3-.2,2.7-.2,4.1-.1,2.3-.1,4.6-.1,6.9,0,5,.3,9.9.9,14.8,1.8,2.1.6,4.2.9,6.3,1,1.7.3,3.4.5,5.1.7.8,0,1.5,0,2.3.2.3,0,.6.1.9.2.7.2,1.4.4,2.2.4,2.5.1,4.9.5,7.4,1,3.4.5,7,.3,10.3-.5h.1Z"></path><path class="cls-1" d="M265.8,273.2c.1,0,.3,0,.4,0,.3,0,.5,0,.8,0,.5,0,1,0,1.5,0,.2,0,.5-.1.7-.2h.4c.6-.1,1.2-.1,1.8-.1.4,0,.9,0,1.3-.1,0,0,.2,0,.3,0,.4.2.7.5,1,.8.2.2.3.4.3.6v.4c.2.5.3,1,.5,1.4,0,.3.1.7,0,1,0,0,0,.1,0,.2,0,0,0,.1-.1.2h0c-.5.5-.9,1-1.3,1.6l-.2.2c0,.1-.2.2-.3.3-.1,0-.2,0-.3,0-.7,0-1.3,0-1.9,0-.6,0-1.3,0-1.9.2-3.2,0-6.4,0-9.6,0-.4,0-.8,0-1.2-.1-.4-.1-.8-.3-1.2-.6l-.3-.2c-.2-.2-.3-.4-.4-.6-.2-1-.2-2.1.2-3.1.1-.3.3-.6.6-.7h.4c.3-.2.7-.4,1-.5,2-.9,4.2-1.2,6.3-.8,0,0,1,.2,1.1.2s.2,0,.2,0Z"></path><path class="cls-1" d="M265.5,294.2c0-.5-.2-1-.2-1.5v-.2c0-.1,0-.2,0-.3.1-.5.2-1.1.3-1.6v-1.3c.1-.1.2-.3.2-.4,0-.1,0-.2.1-.3.4-.7.8-1.3,1.3-1.9l.4-.5.3-.2c.7-.4,1.4-.8,2.2-1,.7-.3,1.4-.6,2.1-1,.2-.1.4-.3.4-.6,0,0,0-.1,0-.2,0-.1,0-.2-.1-.3-.2-.2-.3-.5-.4-.7,0,0-.1-.2-.2-.2,0,0-.2,0-.2-.1-.2,0-.4,0-.7,0-.8,0-1.6,0-2.4.2h-.3c-.2,0-.4,0-.6,0h-.4c-.2,0-.3,0-.5,0-.7,0-1.5.1-2.2,0-2.4,0-4.9-.1-7.3-.4-.6,0-1.2-.3-1.7-.7l-.2-.2c-.7-.8-1.1-1.8-1.2-2.9,0-.2,0-.3-.1-.5,0,0,0-.1-.2-.1h-.2c-.5-.2-1-.2-1.5-.3h-.4c-.2,0-.4,0-.6.2-.2,0-.3.2-.4.3-.3.3-.5.8-.6,1.3,0,1.7-.2,3.3-.2,5s0,.8-.2,1.2c-.2.6-.2,1.3,0,1.9.3,1.6.5,3.1.8,4.7.1.8.4,1.6.9,2.3.4.6.7,1.3.7,2,0,.6.1,1.1.2,1.7,0,.1,0,.2,0,.4,0,.1,0,.2.2.3.2.4.4.8.7,1.1.2.3.3.6.5.9,0,0,.1.1.2.2.1.1.2.2.3.3.6.4,1.2.9,1.9,1.2,0,0,.2,0,.3.1.2,0,.3,0,.4,0s.4,0,.5,0c.1,0,.2,0,.3.1.2.1.4.2.6.4,0,0,0,0,.2,0,0,0,.2,0,.2-.1,0,0,.1-.1.2-.2.2,0,.4,0,.6,0,.5,0,1,.1,1.5.3.5.2,1,.3,1.5.4.2,0,.4,0,.5.1,0,0,.2,0,.2.2,0,.1.2.2.3.3,0,0,.1,0,.2,0,.2,0,.4,0,.5-.1.2,0,.3-.2.5-.3.2-.2.3-.4.4-.6,0,0,0-.2,0-.3,0-.7,0-1.4.1-2.1,0-.5,0-1.1,0-1.5,0-.7,0-1.4,0-2,0-.5,0-1,0-1.5,0-.1,0-.3,0-.4s0-.2,0-.4h0Z"></path><path class="cls-1" d="M271.3,271.9c0,0,.2,0,.3-.1,0,0,0,0,0,0s0,0,0,0c-.2,0-.5-.1-.7-.1-.7,0-1.3,0-2,0-.5,0-1,0-1.5.2.2,0,.3.1.5.1.9,0,1.8,0,2.7,0,.2,0,.5,0,.7,0h0Z"></path><path class="cls-1" d="M270.3,281.1h1c0,0,.1,0,.2-.1,0,0,0,0,0,0,0,0,0,0,0,0s0-.1,0-.2c0,0,0,0-.1-.1,0,0,0,0,0,0h-.4c-.8-.2-1.5-.2-2.3-.2l-7.9.4h-.9c.3.2.6.3.9.3,1.4,0,2.9,0,4.3.2,1.8,0,3.6,0,5.5-.1h0Z"></path><path class="cls-1" d="M263.6,270.1c-.4,0-.8.2-1.3.2-.2,0-.4,0-.6.1-.1,0-.2,0-.3.2,0,0-.2.2-.2.2s0,.2.1.2c.2,0,.3,0,.5,0,1.9,0,3.9,0,5.8-.2.6,0,1.2-.2,1.8-.4,0,0,0,0,0-.1-1-.5-2-.8-3.1-.9-.2,0-.5,0-.7,0h-.3c-.6.3-1.1.5-1.8.6h0Z"></path><path class="cls-1" d="M254.6,275.3c0,0,0,.1-.1.2-.1,0-.2,0-.4,0h-.2s0,0-.1,0c-.2,0-.4.1-.7.2h-.3c-.2,0-.4,0-.6,0-1.3-.2-2.7-.4-4-.5-.2,0-.4,0-.6,0,0,0-.2.1-.2.2,0,0,0,.1,0,.2.2.1.3.2.5.2.2,0,.4.1.6.2,1.2,0,2.4,0,3.6,0,.5,0,.9,0,1.4,0h.5c.5,0,.9-.3,1-.8,0-.1,0-.3.1-.4,0-.1,0-.2,0-.3.2-.7.6-1.3,1.1-1.9,0,0,0,0-.2,0h-.2c-.6.3-1.1.8-1.2,1.5,0,.2,0,.5,0,.7,0,.2,0,.3,0,.5h0Z"></path><path class="cls-1" d="M245.8,282.9c0,0,.1,0,.2-.2,0,0,0,0,0-.1,0-.2,0-.3,0-.5v-.2c-.2-.6-.4-1.1-.5-1.6-.3-1.2-1-2.3-2-3.1-.4-.3-1-.4-1.4-.2-.3.1-.6.3-.9.6-.6.5-1,1.2-1.2,1.9,0,.2,0,.4,0,.6h0c0,.3,0,.4,0,.5,0,.7.2,1.3.4,1.9.2.8.5,1.6.9,2.3.6,1.1,1.3,2.1,2,3.1.3.5.6,1,.8,1.6.2.5.4,1.1.7,1.5l.3.6v.4c.2.3.3.7.5,1,.2.5.5,1,.7,1.6,0,.2.1.4.2.5,0,0,.1.2.2.2,0,0,.2.1.3.2,0,0,0-.2.1-.2,0-.3,0-.6,0-.9v-.3c-.2-.2-.3-.4-.4-.6,0-.1,0-.2-.1-.3,0-.1,0-.2,0-.4,0-.6,0-1.1-.2-1.7,0-.2,0-.4-.2-.6,0-.2-.2-.3-.3-.4-1.2-1.1-1.8-2.6-1.8-4.2,0-.4,0-.9.1-1.3.2-.5.5-1,.9-1.3.2-.2.4-.3.7-.5h0Z"></path><path class="cls-1" d="M241.7,276.7c.2-.2.5-.2.8-.2.2,0,.4,0,.7,0,.2,0,.4,0,.7.1.2,0,.4.2.6.3,0,0,.2.2.3.3,0,0,0,0,.1.2.3.3.5.7.8,1l.2.2c0,0,.2,0,.3,0,0,0,.2,0,.2-.2v-.2c0-.4-.1-.8-.3-1.1-.7-.9-1.5-1.6-2.5-2.1-.6-.3-1.3-.3-1.8.1-.7.5-1.2,1.2-1.5,2,0,.1,0,.2-.1.3,0,0,0,0,0,.1,0,0,0,0,0,0,0,0,0,0,.1,0,.1,0,.2,0,.4-.2l.2-.2c.3-.3.7-.6,1-.7h0Z"></path><path class="cls-1" d="M246.2,286.2c0-.6,0-1.2,0-1.7,0-.1,0-.2,0-.3,0,0,0,0,0,0-.2,0-.4,0-.5.2,0,0-.1.1-.2.2,0,0-.1.2-.2.3-.1.2-.2.5-.2.8,0,.6,0,1.1.1,1.7.1.5.4,1,.8,1.4,0,0,.1,0,.2,0,0,0,0,0,0,0,0,0,0,0,0,0,0-.2,0-.3,0-.5,0-.6,0-1.3,0-2h0Z"></path><path class="cls-1" d="M275.1,340.3c.3-.3.6-.7.9-1.1.2-.3.4-.5.6-.8.4-.6,1-1.2,1.7-1.6l.3-.2c1-.9,2-1.6,3.1-2.3l.6-.4s0,0,.2,0c.2,0,.3-.1.5-.2.4-.1.7-.1,1.1,0,.7.3,1.3.5,2,.7.2,0,.5,0,.8,0,.9.2,1.9.3,2.8.6,2,.2,4,.3,5.9.2,2.1,0,4.2-.5,6.2-1.2.3-.1.7-.2,1-.3.2,0,.3,0,.4,0,.1,0,.2.1.3.3,0,.1.2.2.3.3,0,0,.2.1.3.1,1.6.5,3.2,1.2,4.6,2.2,1.6,1.1,3.3,2,5.1,2.7,1.1.6,2.2,1.1,3.4,1.7.7.4,1.3.8,2,1.2.4.6.9,1.1,1.4,1.5,1.2.6,2.6,1.1,3.9,1.4l.7.2c.2,0,.3.1.5.2.1,0,.3.1.4.2l1.5.4,4,1.5c.5.1.9.3,1.3.5,0,0,.1,0,.2.1.1,0,.3.1.4.2.5.2,1,.3,1.6.4.2,0,.4,0,.7.1l.3.2c.7.3,1.4.7,2.1,1.1,0,0,.2,0,.3.1.1,0,.3,0,.4,0,1.3,0,2.6.3,3.9.8.9.4,2,.6,3,.5l9.6.7c3.1.3,6.2.2,9.2-.4,2.2-.4,4.2-1.1,6.2-2.1.5-.2,1-.3,1.5-.4,1.1-.3,2.2-.5,3.3-.6,1.2,0,2.4,0,3.6-.3.4-.1.9-.4,1.2-.7.4-.3.8-.8,1.1-1.3.2-.4.4-.9.5-1.3l.6-2.6c.2-1,0-2-.5-2.8,0,0-.1-.2-.2-.2,0,0-.2-.2-.3-.2-1-.6-2-1.1-3.1-1.5-.3-.2-.6-.3-.9-.4-.2,0-.3-.2-.5-.2-.2,0-.4,0-.6-.1-1-.2-2-.3-3-.5-.2,0-.3,0-.5-.1,0,0,0,0,0-.2h0c.2-.2.4-.3.6-.4.1,0,.3,0,.4-.2.2,0,.3-.1.4-.3,0,0,0-.2,0-.2-.2-.2-.4-.4-.6-.6-.2-.2-.5-.4-.7-.6-.5-.3-.9-.7-1.4-1-1.7-1.3-3.4-2.4-5.3-3.4-3.3-1.6-6.9-2.3-10.5-2.1-3,.2-6,0-9-.5-1.6-.3-3.1-.4-4.7-.4-2.9-.3-5.8-.6-8.7-.9-6.6-.7-13.2-1.3-19.9-1.6h-7.8c-.4,0-.8-.1-1.2-.3-.6-.2-1.2-.3-1.8-.5-.4,0-.8,0-1.3,0-4.3-.2-8.6,0-12.9.4-1.5,0-3.1,0-4.6,0-.7-.1-1.5-.3-2.2-.6-1.3-.3-2.6-.4-3.8-.3-.8,0-1.5,0-2.2,0-.2,0-.5,0-.7.2-.4.1-.7.2-1.1.4,0,0,0,0,0,0,.9.1,1.8.2,2.7.2,1.1,0,2.1.1,3.1.6.2,0,.3.2.5.4,0,0,0,.1,0,.2s0,0,0,.1c-.1,0-.3.1-.4.1-.4,0-.8,0-1.3,0-.4,0-.8,0-1.2.1-1,.1-2,.2-3,.2-1.3,0-2.7,0-4.1.2-.8,0-1.5.2-2.2.4,0,0-.1.1-.2.2-.3.4-.6.8-.7,1.3,0,.5-.1,1.1-.4,1.6v.7c-.2.6-.4,1.2-.5,1.8,0,.3-.1.6,0,.9,0,.4,0,.8,0,1.2,0,.1,0,.3,0,.4v.2s0,0,0,0c0,.1,0,.2-.1.4,0,0,0,0,0,.1,0,0,0,.2,0,.2,0,0,0,.2,0,.3,0,.1,0,.3,0,.4,0,0,0,.2,0,.2,0,.2-.1.4-.1.6,0,.2,0,.3,0,.4,0,0,0,.2.1.2.1,0,.2.1.4,0,.2,0,.4,0,.5-.1.1,0,.2,0,.3-.2,0,0,.2,0,.2-.1.2-.2.5-.4.7-.7.4-.6.9-1.1,1.3-1.7,0,0,0-.1,0-.2,0,0,0-.1,0-.2,0-.4,0-.7,0-1.1,0-.2,0-.3,0-.5.1-.8.4-1.5.7-2.2.2-.3.3-.6.4-1,0,0,0-.1,0-.2,0,0,0-.2,0-.2,0-.1.2-.2.3-.3h.3c2.1,0,4.3-.3,6.4-.7.1,0,.3,0,.4,0h.1c0,0,.2,0,.2.1,0,.1,0,.3,0,.5h0c0,.2,0,.2,0,.3,0,0,0,.1.1.2.3.2.7.5,1,.7l.2.2v.2c.2,0,.1.1.1.2,0,0-.2.2-.3.2,0,0-.1,0-.2,0-.2.4-.5.8-.8,1.1,0,.1-.2.2-.3.3-.4.2-.7.5-1.1.8-.9,1.2-1.8,2.3-2.9,3.3l-.7,1.1c-.3.4-.6.9-.8,1.4,0,.1,0,.2,0,.3,0,.1,0,.2.1.3.1.1.2.3.3.4l.2.2c.2.5.2,1.1-.2,1.5l-.2.2c-.1.1-.3.3-.4.4,0,0,0,0-.1,0,0,0,0,0,0-.1,0,0,0,0,0-.1,0-.1.2-.3.3-.4,0-.1.2-.3.3-.4,0,0,0-.2,0-.3,0-.1,0-.2-.2-.3-.1,0-.2-.1-.4-.2-.1,0-.3,0-.4,0-.1,0-.2,0-.3.1-.2.3-.4.7-.4,1,0,0,0,.1,0,.2,0,.1.1.3.2.4l.3.4c0,0,.1.2.2.2,0,0,.1,0,.2,0,.5,0,1-.1,1.4-.4.5-.7,1-1.3,1.4-2h0Z"></path><path class="cls-1" d="M316.9,353.6c-.2.3-.5.7-.8.9v.2c-.2.1-.3.2-.4.4,0,0-.1.2-.1.4s0,.2.2.2h.1c.3,0,.5,0,.8,0h.4c.2,0,.4-.2.6-.3.1-.1.2-.2.3-.4,0,0,0-.1.1-.2.4-.7.9-1.3,1.3-2,.4-.5.7-1.1,1-1.7.1-.3.2-.6.2-.9,0-.2,0-.4,0-.5,0,0,0-.1,0-.2,0,0-.2-.2-.3-.2-.6-.3-1.3-.6-1.9-.9-.7-.3-1.4-.8-2-1.3-.4-.3-.7-.7-1-1.1,0,0,0-.2,0-.2,0,0,0-.1,0-.2,0-.1.1-.2.2-.2,0,0,.2.1.3.2.5.5,1.1,1,1.6,1.4.9.6,1.8,1,2.8,1.3h.4c.4.2.8,0,.9-.4,0,0,0-.1,0-.2,0,0,0-.1,0-.2,0-.2,0-.3-.2-.4-.2-.3-.6-.6-1-.8l-1.8-.9-.5-.2s0,0,0,0h0c0-.2.1-.2.2-.3h.2c.1-.2.2-.2.2-.4,0-.1,0-.2,0-.3-.2-.4-.6-.8-1.1-1.1-.6-.4-1.2-.7-1.8-.9-1.8-.9-3.7-1.8-5.5-2.7-.5-.3-.9-.6-1.3-.9-.6-.3-1.2-.7-1.8-1-.3-.2-.6-.3-.9-.5,0,0-.2-.1-.3-.2,0,0-.2,0-.3-.1-1-.3-2-.5-2.9-.8-.5-.1-1.1,0-1.6.1-.3.1-.7.2-1,.4-.3,0-.5.2-.8.2-3.5.6-7.1.6-10.6,0l-1.8-.2c-.7-.1-1.4-.3-2.1-.6l-1-.3c-.1,0-.3,0-.4,0s-.3,0-.4,0c-1.1.5-2.2,1.1-3,2-.3.2-.6.5-.9.7-.6.6-1.1,1.1-1.7,1.6-.6.8-1.3,1.5-2,2.2l-.9.9v.2c-.2,0-.2.2-.1.3,0,0,0,0,.1.1,0,0,.2,0,.2,0,.2,0,.5,0,.7,0,1.7-.1,3.3-.2,5-.3,3.4,0,6.7,0,10.1,0,.3,0,.5,0,.8,0,0,0,.1,0,.2,0,0,0,.2,0,.2,0,0,0,.2,0,.2,0,0,0,.1.2.1.2,0,.4,0,.7.1,1v.4c.6,1,1.3,1.9,2.2,2.5,1,.9,2.2,1.6,3.5,2,.6.2,1.3.5,2,.8,1.1.4,2.3.6,3.4.7,2.2.3,4.4.4,6.6.3.4,0,.8,0,1.2.2.2,0,.4.2.6.2,0,0,.1,0,.2.1,0,0,.1.2,0,.3v.2c-.3.2-.5.4-.7.6-.2.2-.4.5-.6.7,0,0-.1.2-.2.3,0,.2,0,.4,0,.6,0,0,0,.2,0,.2,0,0-.2,0-.4,0,0,0-.2,0-.3-.1,0,0,0,0-.1,0,0,0-.2,0-.3-.1-.1,0-.3,0-.4-.1-.2,0-.3-.1-.4-.2,0,0-.1-.2-.2-.3,0-.2,0-.3-.2-.4,0,0,0-.2-.2-.2-.5-.6-1.3-.9-2.1-1-.2,0-.5,0-.7,0-.1,0-.3,0-.4.2-.1,0-.2.2-.2.3v.2c0,0,0,.2.1.2.1.2.3.5.5.7.4.6.7,1.2.9,1.8,0,.2.2.4.3.5,0,.1.2.2.3.3.5.3,1.1.5,1.7.6,1.3.4,2.6.7,3.9.7.4,0,.7-.2,1-.4,0,0,.1-.1.2-.2,0,0,.2-.2.2-.3.4-.6.9-1.3,1.3-1.9.2-.3.5-.6.9-.8.2-.4.6-.8,1-1,.1-.1.2-.2.4-.4.1,0,.2-.2.3-.3.2-.2.3-.5.3-.8,0-.3,0-.6-.3-.8-.2-.2-.4-.5-.7-.7-.5-.4-1-.8-1.5-1.2l-.9-.8c-.1,0-.2-.2-.2-.4,0,0,0,0,0-.1,0,0,0,0,.1,0h.2c.4.2.7.4,1,.7.7.6,1.4,1.1,2.1,1.6.4.2.7.6.9,1,.4.5.3,1.2-.1,1.7-.4.5-.9.9-1.4,1.2h0Z"></path><path class="cls-1" d="M270.2,343.2c-.6-.9-.6-2,0-2.9,1.1-1.5,2.1-3.1,3.1-4.6l3.2-3.4s0,0,.1,0c.1,0,.2-.1.3-.2,0,0,0,0,.1-.1.1-.2.3-.3.4-.5,0-.4.2-.7.4-1l-.3-.3c-.2,0-.4,0-.6,0-1.4.1-2.7.2-4.1.4h-.4c-.2,0-.5.1-.7.2-.1,0-.2.1-.3.2-.2.2-.3.4-.5.7l-.4,1.5c-.1.3-.2.7-.2,1,0,.4-.1.9-.2,1.3-.4,1.5-1.5,2.9-3,3.6-.5.2-1.1.3-1.6,0-.2,0-.3-.1-.4-.2-.1,0-.2-.1-.3-.2-.4-.4-.6-.8-.7-1.3v-.9c0-.7.1-1.5.2-2.2,0-.2,0-.3,0-.5,0,0,0-.2,0-.2,0-.2,0-.4,0-.7.1-.2.2-.4.2-.7.2-.7.4-1.3.5-2v-.7c.1,0,.6-1.7.6-1.7.2-.6.6-1.1,1-1.6.2-.2.5-.4.8-.5l2.9-1.2-1.7-.2c-.8-.1-1.6-.2-2.4-.2l-7.7-1c-2.5-.4-5-.8-7.6-1.1-.8,0-1.6-.2-2.4-.4-1.1-.2-2.3-.3-3.5-.3-1.3-.2-2.5-.5-3.8-.7-1.6-.2-3.1-.5-4.7-.9-.7-.1-1.4-.2-2.1-.2-1.5-.2-2.9-.4-4.4-.6-1.3-.2-2.6-.2-4-.2-2.7,0-5.5,0-8.2.1-1,.2-2,.3-3.1.6l-1.5.3c-.5.1-.9.3-1.3.5-1.4.6-2.8,1.2-4.1,1.8-1.3.8-2.5,1.5-3.8,2.2-.7.4-1.3.9-1.9,1.3-2.2,1.3-4.2,2.8-6.2,4.4-.6.4-1.1.7-1.7,1-1.7.9-2.8,2.7-2.8,4.6-.2,1.5-.2,2.9-.1,4.4,0,.2,0,.5.1.7,0,.2,0,.3.2.5,0,.2.2.3.3.4.6.6,1.3,1.2,2,1.7,1.3,1,2.5,2.1,3.6,3.3.5.5,1,.9,1.6,1.3,0,0,.2.2.3.2.2,0,.3.1.5.1.1,0,.3,0,.4.1.2,0,.4.2.5.3l.2.2c.4.5,1,.9,1.5,1.2l1.1.7c.7.4,1.5.7,2.3.9.5.1,1,.2,1.5.3.8,0,1.6.2,2.3.4.5,0,.9,0,1.4,0l4.4-.2c1.7-.2,3.4-.6,5-1,1.3-.3,2.7-.5,4.1-.6.9-.2,1.9-.3,2.8-.4.5,0,1.1-.1,1.6-.1h.3c.3,0,.6-.1.9-.2,2-.4,3.9-.7,5.9-1,.7-.2,1.4-.4,2.1-.6l2.7-.5c1.4-.4,2.9-.6,4.4-.7.9-.2,1.8-.3,2.6-.6,1.1-.2,2.2-.3,3.3-.4l2.6-.6c1-.2,2-.3,3-.3.6-.1,1.3-.2,1.9-.3,3-.4,6-.7,9-.7.8,0,1.5-.2,2.3-.2,0-.2-.2-.4-.3-.6h0Z"></path></g><path class="cls-5" d="M299.3,277.5s-.6-.3-1.3-.2c-.6,0-1.6.3-2.2.4-.6,0-2.5,0-3.2,0s-2.7,0-2.9-.2c-.3-.3-1-.8-1-.8,0,0,.5-.2.7,0,0,0,.3.4.4.4s2.9,0,3.2,0c.3,0,3.5,0,3.7,0s.7-.4.6-.5c0-.1,0-.3-.3-.3-.3,0-.7-.2-.7-.4,0-.2.3-.4.3-.6,0-.2,0-.2-.1-.3-.1,0-.4,0-.2-.2.2-.1.4-.1.3-.3-.1-.2-.3-.3-.6-.5-.3-.1-.8-.4-1.2-.5-.4-.1-.2-.2-.6-.3s-.6-.1-.9,0c-.3,0-.4-.2-.3-.3.2-.1-.1,0,.6,0,.7,0,1.4-.1,1.7,0,.3.1,1.3.7,1.4.9,0,.1,0,.4.2.4.2,0,.4,0,.5,0,0,0,.2.4.7.9.4.6.9,1.3,1.1,1.5.2.2.5.6.5.7,0,.1.1.2.2.2s.6.2.5.2c0,0-.8-.1-.8-.1h-.2Z"></path><path class="cls-5" d="M295.6,275.5s.1.3.2.4c0,0-.7.1-.8.2-.6.1-3,.1-3.1,0s-.4-.5-.5-.6c0,0-.6-.3-.6-.3,0,0,0,.4,0,.4,0,0-.1.4-.4.4s-1,0-1.4.1c-.4,0-.5.2-.7.3s-.3,0-.3,0c0,0,1.1-1.2,1.2-1.4.1-.2.1-.8.3-.7.1,0,0,.5.2.5.1,0,.4-.5.6-.7.1-.2.7-.4.8-.5.2-.1.7-.3,1-.4.3,0,.4-.1.6,0s.2,0,.3,0c0,0,.3.2.1.2-.1,0-.8.2-.8.3,0,.2,0,.3,0,.4.2.1.6,0,1,0s.7,0,1.3.1c.6.2,1,.3,1.1.5.1.1.5.2.3.5l-.2.3Z"></path><path class="cls-5" d="M263.1,276.6s-2,.6-2.3.8c-.3.2-.5.4-.8.6-.3.1-.6.3-.6.3,0,0,.4-1.2.6-1.4.2-.2.8-.7.9-.9,0-.2.6-.6.6-.6,0,0,.6.1.7.1s.4-.1.6-.2c.2-.1.4-.2.4,0,0,.3.2.8,0,.9-.2,0,0,.4,0,.4Z"></path><path class="cls-5" d="M262,275s1.2-.8,1.4-.8c.2,0,1.6-.6,2-.5.4,0,1.1-.2,1.8,0,.7.3,1.1.4,1.3.6s.4.4.4.2,0-.4-.5-.6-1.7-.5-2-.5-1.5,0-2.1.2c-.5.2-1.2.4-1.6.7-.4.3-.7.2-.7.4,0,.2,0,.5,0,.5v-.3Z"></path></g><path class="cls-5" d="M271.3,276.8s-1,.5-1.3.5-1.4,0-1.7.1c-.3,0-.9.2-1.3.1-.4,0-1.7,0-2.1.2-.4.1-2.1.3-2.3.3-.2,0-1.6,0-1.6,0h-.3s3.2-.5,3.9-.7c.8-.2,4.6-.2,5.1-.5.1,0,.1-.6,0-.7-.2,0-.4.1-.6.2-.2,0-.4,0-.4,0l.6-.3s0-.4-.1-.4c-.2,0-1,0-1,.1,0,.2,0,.4-.1.5-.2.1-.2.2-.5.2s-1.5,0-2,0c-.5,0-1.3,0-1.5-.1-.1-.1-.2-.2-.2-.4s0-.5.2-.7c.2-.2,1.2-.9,1.9-.9.7,0,2.5.2,2.8.3.2,0,.7.2.8.3.2,0,.8.4,1.1.7.3.2.6.6.7.8.1.2.2.2.2.5Z"></path><path class="cls-3" d="M214.4,264l-6.4-14.9c-1,1.9-2,4.1-2.8,6.4-.8,2.3-1.4,4.4-1.8,6.2-.4,1.8-.7,3.4-1,4.8-.2,1.4-.4,2.5-.5,3.1,0,.1-.2.2-.3.3-.2,0-.3,0-.4,0-.1,0-.7-1-1.7-2.7-1-1.7-2-3.7-3-5.8,1.7-7.6,3.9-13.8,6.8-18.7,3.3-5.6,6.7-8.9,10.2-9.8,1.2-.3,2.5-.4,3.9-.2,1.4.2,2.6.7,3.7,1.3,2.5,1.5,4.4,3.4,5.8,5.7,1.4,2.3,2.2,5,2.4,8,.3,3,0,6.1-1,9.4-.9,3.3-2.3,6.7-4.3,10.1-.4.6-1.2,1.8-2.5,3.5l2.6,4.8c.5,0,.9,0,1.1.1.5.3.9.7,1.1,1.1.3.7.7,1.5,1.1,2.6.5,1.1.8,1.8.9,2.2.1.4.2.7.3,1.1,0,.4,0,.7-.2,1-.3.5-.7.8-1,.8-.4,0-.8-.2-1.3-.5-.7-.4-1.7-1.5-2.8-3.2-1.1-1.7-2.5-4.1-4.2-7.3-.8.7-1.6,1.1-2.3,1.3-.8.2-1.4.1-1.8-.1-1-.6-1.6-1.8-1.7-3.6-.1-1.8.3-4.1,1.3-6.9ZM216.7,261.6l1.5,3c.4-.7.8-1.3,1.2-1.8.3-.5.6-1,.8-1.3,1.9-3.2,3.1-6.2,3.7-9,.6-2.8.7-5.2.4-7.3-.3-2-.9-3.7-1.7-5-.8-1.3-1.6-2.2-2.4-2.6-1.1-.6-2.2-.7-3.4,0-1.2.6-2.4,1.7-3.6,3.3-1.3,1.6-2.7,3.9-4.4,6.7.2,0,.4.2.7.3.9.5,1.7,1.7,2.5,3.5l4,8.7,1.7-3.8c.2-.3.4-.4.6-.2.2.1.2.5,0,1l-1.7,4.6ZM244,231.1c-3.1,5-5.2,8.9-6.1,11.6-1,2.7-1,4.7,0,6,.4.5.7.8,1.2,1,.4.2.8.2,1.1,0,.2-.1.4-.5.8-1,1.1-2.3,1.8-4.7,2.2-7.3.4-2.6.7-6,.8-10.2ZM264.3,227.6l-1.8-3.8c-.8,1.7-2.7,5-5.6,10,1.3-.2,2.2-.1,2.8.2.6.3,1.4.8,2.6,1.7,1.2-1,2-2,2.5-3.1.4-1.1.4-2.5,0-4,0-.2-.1-.3-.2-.5,0-.1-.1-.3-.2-.4ZM328.6,230.4c-5.9-.3-10.3-.2-13.1.2-2.8.4-4.6,1.4-5.3,3-.3.6-.4,1.1-.3,1.5,0,.5.2.8.6.9.2.1.6.2,1.3.2,2.5-.1,5-.7,7.5-1.6,2.5-.9,5.6-2.3,9.3-4.2ZM354,268.1c.5,0,1,0,1.4.1.5,0,1.1.2,2.1.5,4.9,1.6,7.8,3.6,8.5,5.9.4,1.2.2,2-.7,2.2-.6.2-1.6,0-3.1-.3-1.5-.4-2.6-.8-3.3-1.3-2.1-1.3-3.5-2.1-4.3-2.4-.8-.3-1.5-.4-2.3-.2-.7.2-1.1.7-1.4,1.3-.3.7-.3,1.5,0,2.3.3.9.9,1.9,1.9,2.8,1,.9,2.5,2.1,4.4,3.5l-2,.6c-2.9-1.2-5.2-2.5-6.9-3.8-1.7-1.3-2.7-2.6-3.1-3.8-.5-1.6-.1-3.1,1.2-4.4,1-.9,2.1-1.7,3.3-2.3-.8-.1-1.6-.2-2.2-.4-1.8-.5-3.3-.9-4.4-1.4-1.1-.5-1.9-1-2.4-1.6-.4-.5-.6-1.1-.5-1.7,0-.6.4-1.2.9-1.6.5-.4,1.1-.7,1.8-1,.7-.2,1.6-.4,2.6-.6,1.1-.2,2.4-.3,3.9-.5,1.6-.1,3-.3,4.3-.4-2.6-.7-5-1.2-7.2-1.6-2.2-.4-4.1-.6-5.6-.7-1.5-.1-2.7-.2-3.6-.3-1.7-.2-2.8-.6-3.4-1.4-.7-.9-.5-1.7.6-2.6.4-.4,1.5-.7,3.2-1,1.7-.3,3.9-.6,6.6-.8.2,0,.4-.1.7-.3.3-.2.3-.5,0-.9-.3-.4-1-.6-2.2-.8-1.2-.2-3.5-.5-7.1-.8-1,0-2.2-.1-3.6,0-1.4,0-2.4,0-3,0-.5,0-.9-.2-1.2-.5-.5-.6-.4-1.5.1-2.8.3-.6.6-1.2,1-1.7-5.9,2-9.9,2.6-11.7,1.7-.7-.4-1.2-.8-1.3-1.4-.1-.6,0-1.3.5-2.2.7-1.4,2.1-3.1,4.5-5.2-4.1,1.5-7.1,2.5-9.1,3-1.9.5-3.3.6-4.2.2-.4-.2-.8-.8-1.1-1.7-.3-1-.5-2.1-.4-3.4,0-.8.2-1.5.4-2.2-1.6,1.2-3,2.3-4,2.9-1.3.8-2.4,1.4-3.5,1.8-1,.4-1.9.6-2.7.5-.9-.1-1.6-.6-2-1.4-.5-.8-.6-1.9-.4-3.3.1-.8.5-1.7,1.1-2.7.6-1,1.4-2,2.5-3.1,1.1-1.1,2.2-2.2,3.5-3.2-.6,0-1.3,0-2,0-.7,0-1.5,0-2.4,0-.8,0-1.5,0-1.9,0-1.6,2.2-3.7,3.9-6.1,6.5l-.2.2c-4.6,5.2-8.2,7.9-10.7,8.1-.9,0-1.7-.2-2.4-.8-.6-.6-1-1.5-1.1-2.5,0-.7,0-1.6.3-2.6.2-1,.7-2.5,1.4-4.6-.3.3-.5.5-.7.8-.2.2-.5.7-.8.9v.2c-2,3-3.7,5.6-5.4,7.4-1.6,1.8-3.2,3-4.7,3.5-1.9.6-3.9.4-5.9-.5-1.2-.6-2.1-1.2-2.6-1.9,0-.1-.2-.3-.3-.5,0,0-2.5,9-4,10.1-.7.5-1.3.6-1.8.4-.6-.2-1.1-.7-1.7-1.5-.9-1.2-1.7-3.4-2.4-6.4-.7,4.3-1.3,7.5-1.7,9.4-.5,1.9-1.1,3.2-1.9,3.8-.4.3-1.1.3-2.1.1-1-.2-2-.6-3.2-1.2-1.1-.6-2-1.5-2.8-2.5-.5-.7-.9-1.4-1.1-2-.2-.6-.3-1.3-.2-2.2,0-.8.3-2,.7-3.6,1.1-4,2.4-7.4,4.1-10.2,1.7-2.8,3.2-4.7,4.6-5.6.4-.3.8-.4,1.3-.3.5,0,1,.2,1.4.4.4.2.7.4.8.6.2.3.2.6,0,.9-.1.3-.4.8-.9,1.4.3.2.7.4,1.2.6.5.3.8.5,1.1.6.3.2.5.3.6.5.3.4.4,1.4.3,3,0,1.6-.1,2.8-.1,3.5,0,.7.3,1.4.8,2.1.8,1.2,1.8,1.3,3,.5.9-.7,1.7-2.3,2.5-4.8,0-.2.1-.3.2-.5l.2-.5c0,0,0-.2,0-.2,3.5-6.5,5.5-11.2,6.8-13.8-.3-2.4.4-3.9,2.1-4.4.4-.1.9-.2,1.5-.1l.3.5c0,.2,0,.6.2,1,.1.3.5.9,1.1,1.8.6.8,1.1,1.6,1.4,2.1.4.6.7,1.3.9,2.1.4,1.2.5,2.5.2,3.8-.2,1.3-.8,2.6-1.6,4-.8,1.4-1.9,2.9-3.4,4.5.8-.1,1.3-.3,1.8-.4.8-.3,1.6-.7,2.5-1.4.8-.7,1.6-1.6,2.4-2.5.7-.9,1.6-2.1,2.8-3.5h0c1.3-1.5,3.1-3.4,6.5-8.8-.3,0-.6,0-.9,0-.3,0-.6,0-1,0-1.2,0-2.2.2-2.8.5-.2,0-.5.2-.7.2-.2,0-.4.1-.5.1,0,0-.1,0-.1-.2,0-.6.3-1.6,1.1-2.9.6-1.1,1.2-2,1.8-2.5.6-.6,1.3-1,2.2-1.2.9-.3,2.1-.4,3.7-.6h1.4c1-2,1.9-3.4,2.7-4.2.8-.8,1.8-1.3,3-1.4,1.2,0,1.8.1,1.8.6,0,.2-.4.9-1.2,2-.8,1.1-1.4,2-1.8,2.7.7,0,1.4,0,1.9,0,.6,0,1,0,1.3,0-1,2.1-2.4,4.3-4,6.6-.6,0-1.1,0-1.5,0-.4,0-.8,0-1.2,0s-.9,0-1.5,0c-1,1.8-1.8,3.3-2.5,4.7-.7,1.4-1.2,2.6-1.5,3.7-.3,1.1-.4,2.2-.4,3.1.1,1.3.7,1.9,1.9,1.8.8,0,1.8-.5,3-1.4,1-.7,2.3-1.8,3.9-3.1l.4-.4c1.2-1,2-2.2,2.6-2.9-.6-.3-1.1-.6-1.3-1-.3-.3-.3-.8-.3-1.4,0-.7.5-1.5,1.3-2.5.8-1,1.7-1.8,2.7-2.6,1-.8,2-1.3,2.8-1.4.3,0,.6-.1.9,0,.4,0,.6.3.6.6,0,.3-.5.9-1.3,1.8,4.4,0,7.2,0,8.3.2.4,0,.7.1.9.2.3.2.6.7.7,1.3.1.7.2,1.3,0,1.9,0,.4-.3.8-.8,1.2-.5.4-1.2,1-2.3,1.8-1.3.9-2.4,2-3.3,3.1-.9,1.2-1.4,2.1-1.5,2.7-.1.9.4,1.4,1.6,1.6,1.3.2,4.9-2.1,8.3-4.1l1.3-.8c.8-.4,1.8-.7,3.4-1.1,4-1,7.7-1.5,11-1.3,3.3.1,5.6.6,7.1,1.3.4.2.7.5.9,1,.2.5.3.9.3,1.4,0,.5,0,.8-.1,1-.2.3-.4.5-.7.5-.3,0-.9,0-1.7-.1,0,.3,0,.8,0,1.3,0,.5,0,1,0,1.3,0,.3,0,.6-.2.8-.2.4-1,1-2.5,1.7-1.5.7-2.5,1.2-3.1,1.6-.6.4-1.1.9-1.5,1.7-.6,1.3-.3,2.2,1,2.9,1.3.6,3.2.4,8.7-1.1h.1c.2-.1.5-.2.7-.2.9-.2,2.2-.4,3.8-.5,2.3,0,4.1,0,5.3.2,1.2.2,2.1.7,2.7,1.5.4.5.6.9.7,1.4,0,.5,0,.8-.3,1.1-.3.3-1.1.4-2.3.3-1.2,0-2.6-.2-4.1-.5-.8-.1-1.7-.2-2.7-.1s-1.6.2-1.9.4c-.4.3-.5.7-.2,1,.2.3,1.3.6,3.3.8,2,.3,4.1.6,6.4,1,2.3.4,4.4.8,6.1,1.3,1.7.5,2.9,1.1,3.6,2,.4.5.5,1,.5,1.6,0,.6-.4,1.1-.9,1.5-.3.3-1.1.5-2.4.7-1.3.2-2.9.3-4.9.4-2,0-4.5,0-7.5,0,3.7.8,6.8,1.5,9.5,2,2.7.5,4.8.9,6.3,1.2,1.5.3,2.8.6,3.9.9,1.1.3,1.7.5,1.9.7.3.4.3,1-.2,1.9-.5.9-.9,1.6-1.3,1.9-.3.2-1.4.2-3.3,0-1.9-.2-3.4-.3-4.4-.3-1,0-1.9.3-2.6.8-.4.3-.6.7-.6,1.2,0,.5.2.9.5,1.4.4.5,1.1.9,2.1,1.2.5.1,1.5.3,2.6.5.1,0,.3,0,.4,0h.5ZM368.9,276.8c-.2-.5-.1-1,0-1.6.2-.6.6-.9,1.1-1.1.8-.3,1.8-.1,3.1.4,1.3.5,2,1.2,2.3,2.1.2.6.2,1.2,0,1.7-.2.5-.6.9-1.3,1.1-.8.2-1.8.1-3-.4-1.2-.5-2-1.3-2.3-2.2Z"></path></g></g></svg>